<svg width="529" height="544" viewBox="0 0 529 544" fill="none" xmlns="http://www.w3.org/2000/svg">
<path d="M358.216 333.211L286.829 279.671V170.609C286.829 159.643 277.965 150.779 266.999 150.779C256.033 150.779 247.169 159.643 247.169 170.609V289.587C247.169 295.833 250.104 301.723 255.101 305.451L334.419 364.94C337.988 367.617 342.153 368.906 346.297 368.906C352.345 368.906 358.294 366.189 362.181 360.954C368.766 352.208 366.981 339.775 358.216 333.211Z" fill="black"/>
<path d="M267 32C125.833 32 11 146.833 11 288C11 429.167 125.833 544 267 544C408.167 544 523 429.167 523 288C523 146.833 408.167 32 267 32ZM267 504.341C147.725 504.341 50.659 407.275 50.659 288C50.659 168.725 147.725 71.659 267 71.659C386.295 71.659 483.341 168.725 483.341 288C483.341 407.275 386.275 504.341 267 504.341Z" fill="black"/>
<rect x="413" y="26.6188" width="37" height="125" transform="rotate(-46.0072 413 26.6188)" fill="black"/>
<rect width="37" height="125" transform="matrix(-0.694567 -0.719428 -0.719428 0.694567 115.627 26.6188)" fill="black"/>
</svg>
