<svg width="439" height="132" viewBox="0 0 439 132" fill="none" xmlns="http://www.w3.org/2000/svg">
<path d="M49 75H19.6055V25.9863H47.8721V34.9756H30.6455V45.8789H46.6758V54.834H30.6455V66.0449H49V75Z" fill="#CC0000"/>
<path d="M94.1855 60.0977H75.4893V52.5439H94.1855V60.0977ZM123.854 75V25.9863H141.217C158.626 25.9863 167.33 33.9502 167.33 49.8779C167.33 57.5114 164.949 63.6068 160.187 68.1641C155.447 72.7214 149.124 75 141.217 75H123.854ZM134.894 34.9756V66.0449H140.362C145.147 66.0449 148.896 64.6094 151.607 61.7383C154.342 58.8672 155.709 54.9593 155.709 50.0146C155.709 45.3434 154.353 41.6748 151.642 39.0088C148.953 36.32 145.17 34.9756 140.294 34.9756H134.894ZM205.851 60.5762H183.019C183.383 65.6576 186.585 68.1982 192.623 68.1982C196.474 68.1982 199.858 67.2868 202.774 65.4639V73.2568C199.539 74.9886 195.335 75.8545 190.162 75.8545C184.511 75.8545 180.125 74.2936 177.003 71.1719C173.881 68.0273 172.32 63.6523 172.32 58.0469C172.32 52.2363 174.007 47.6335 177.379 44.2383C180.751 40.8431 184.898 39.1455 189.82 39.1455C194.924 39.1455 198.867 40.6608 201.646 43.6914C204.449 46.722 205.851 50.835 205.851 56.0303V60.5762ZM195.836 53.9453C195.836 48.9323 193.808 46.4258 189.752 46.4258C188.02 46.4258 186.516 47.1436 185.24 48.5791C183.987 50.0146 183.224 51.8034 182.95 53.9453H195.836ZM247.345 75H234.391L223.214 57.6367H223.077V75H212.276V23.1836H223.077V56.167H223.214L233.639 40H246.456L233.912 56.4404L247.345 75ZM256.915 34.4629C255.092 34.4629 253.6 33.9274 252.438 32.8564C251.275 31.7627 250.694 30.4297 250.694 28.8574C250.694 27.2396 251.275 25.918 252.438 24.8926C253.6 23.8672 255.092 23.3545 256.915 23.3545C258.761 23.3545 260.253 23.8672 261.393 24.8926C262.555 25.918 263.136 27.2396 263.136 28.8574C263.136 30.498 262.555 31.8424 261.393 32.8906C260.253 33.9388 258.761 34.4629 256.915 34.4629ZM262.247 75H251.446V40H262.247V75ZM305.587 75H294.786V70.1807H294.649C292.188 73.9632 288.577 75.8545 283.814 75.8545C279.439 75.8545 275.919 74.3164 273.253 71.2402C270.587 68.1413 269.254 63.8232 269.254 58.2861C269.254 52.4984 270.724 47.8613 273.663 44.375C276.603 40.8887 280.453 39.1455 285.216 39.1455C289.728 39.1455 292.872 40.7633 294.649 43.999H294.786V23.1836H305.587V75ZM294.991 57.9785V55.3467C294.991 53.068 294.33 51.1768 293.009 49.6729C291.687 48.1689 289.967 47.417 287.848 47.417C285.455 47.417 283.587 48.3626 282.242 50.2539C280.898 52.1224 280.226 54.6973 280.226 57.9785C280.226 61.0547 280.875 63.4245 282.174 65.0879C283.473 66.7513 285.273 67.583 287.574 67.583C289.762 67.583 291.539 66.7057 292.906 64.9512C294.296 63.1966 294.991 60.8724 294.991 57.9785ZM343.8 75H333.58V69.9756H333.443C331.096 73.8949 327.621 75.8545 323.019 75.8545C319.623 75.8545 316.946 74.8975 314.986 72.9834C313.049 71.0465 312.081 68.4717 312.081 65.2588C312.081 58.4684 316.103 54.5492 324.146 53.501L333.648 52.2363C333.648 48.4082 331.575 46.4941 327.428 46.4941C323.258 46.4941 319.293 47.736 315.533 50.2197V42.085C317.037 41.3102 319.088 40.6266 321.686 40.0342C324.306 39.4417 326.687 39.1455 328.829 39.1455C338.81 39.1455 343.8 44.1243 343.8 54.082V75ZM333.648 60.7812V58.4229L327.291 59.2432C323.782 59.6989 322.027 61.2826 322.027 63.9941C322.027 65.2246 322.449 66.2386 323.292 67.0361C324.158 67.8109 325.32 68.1982 326.778 68.1982C328.806 68.1982 330.458 67.5033 331.734 66.1133C333.01 64.7005 333.648 62.9232 333.648 60.7812ZM387.413 75H374.459L363.282 57.6367H363.146V75H352.345V23.1836H363.146V56.167H363.282L373.707 40H386.524L373.98 56.4404L387.413 75ZM420.636 75H410.416V69.9756H410.279C407.932 73.8949 404.457 75.8545 399.854 75.8545C396.459 75.8545 393.782 74.8975 391.822 72.9834C389.885 71.0465 388.917 68.4717 388.917 65.2588C388.917 58.4684 392.939 54.5492 400.982 53.501L410.484 52.2363C410.484 48.4082 408.411 46.4941 404.264 46.4941C400.094 46.4941 396.129 47.736 392.369 50.2197V42.085C393.873 41.3102 395.924 40.6266 398.521 40.0342C401.142 39.4417 403.523 39.1455 405.665 39.1455C415.646 39.1455 420.636 44.1243 420.636 54.082V75ZM410.484 60.7812V58.4229L404.127 59.2432C400.618 59.6989 398.863 61.2826 398.863 63.9941C398.863 65.2246 399.285 66.2386 400.128 67.0361C400.994 67.8109 402.156 68.1982 403.614 68.1982C405.642 68.1982 407.294 67.5033 408.57 66.1133C409.846 64.7005 410.484 62.9232 410.484 60.7812Z" fill="#008AE5"/>
<path d="M6.14551 116.383V124H2.67383V102.994H9.0459C11.458 102.994 13.3281 103.556 14.6562 104.679C15.9844 105.802 16.6484 107.384 16.6484 109.425C16.6484 111.466 15.9551 113.136 14.5684 114.435C13.1816 115.733 11.3066 116.383 8.94336 116.383H6.14551ZM6.14551 105.865V113.541H8.40137C9.89551 113.541 11.0332 113.194 11.8145 112.501C12.5957 111.808 12.9863 110.831 12.9863 109.571C12.9863 107.101 11.5508 105.865 8.67969 105.865H6.14551ZM28.543 112.237C28.1328 111.915 27.542 111.754 26.7705 111.754C25.7646 111.754 24.9248 112.208 24.251 113.116C23.5771 114.024 23.2402 115.26 23.2402 116.822V124H19.8418V109H23.2402V112.091H23.2988C23.6309 111.036 24.1387 110.216 24.8223 109.63C25.5156 109.034 26.2871 108.736 27.1367 108.736C27.752 108.736 28.2207 108.829 28.543 109.015V112.237ZM37.332 124.352C35.0176 124.352 33.167 123.653 31.7803 122.257C30.4033 120.851 29.7148 118.99 29.7148 116.676C29.7148 114.156 30.4326 112.188 31.8682 110.772C33.3135 109.356 35.2568 108.648 37.6982 108.648C40.042 108.648 41.8682 109.337 43.1768 110.714C44.4854 112.091 45.1396 114 45.1396 116.441C45.1396 118.834 44.4316 120.753 43.0156 122.198C41.6094 123.634 39.7148 124.352 37.332 124.352ZM37.4932 111.358C36.165 111.358 35.1152 111.822 34.3438 112.75C33.5723 113.678 33.1865 114.957 33.1865 116.588C33.1865 118.16 33.5771 119.4 34.3584 120.309C35.1396 121.207 36.1846 121.656 37.4932 121.656C38.8311 121.656 39.8564 121.212 40.5693 120.323C41.292 119.435 41.6533 118.17 41.6533 116.529C41.6533 114.879 41.292 113.604 40.5693 112.706C39.8564 111.808 38.8311 111.358 37.4932 111.358ZM62.249 124H58.8506V121.451H58.792C57.6982 123.385 56.0137 124.352 53.7383 124.352C51.8926 124.352 50.4131 123.683 49.2998 122.345C48.1963 120.997 47.6445 119.166 47.6445 116.852C47.6445 114.371 48.2549 112.384 49.4756 110.89C50.7061 109.396 52.3418 108.648 54.3828 108.648C56.4043 108.648 57.874 109.459 58.792 111.08H58.8506V101.793H62.249V124ZM58.8945 117.145V115.182C58.8945 114.117 58.5479 113.214 57.8545 112.472C57.1611 111.729 56.2773 111.358 55.2031 111.358C53.9336 111.358 52.9326 111.832 52.2002 112.779C51.4775 113.727 51.1162 115.04 51.1162 116.72C51.1162 118.243 51.4629 119.449 52.1562 120.338C52.8594 121.217 53.8018 121.656 54.9834 121.656C56.1455 121.656 57.0879 121.231 57.8105 120.382C58.5332 119.522 58.8945 118.443 58.8945 117.145ZM79.7686 124H76.3701V121.627H76.3115C75.3252 123.443 73.792 124.352 71.7119 124.352C68.167 124.352 66.3945 122.223 66.3945 117.965V109H69.793V117.613C69.793 120.309 70.833 121.656 72.9131 121.656C73.9189 121.656 74.7441 121.285 75.3887 120.543C76.043 119.801 76.3701 118.829 76.3701 117.628V109H79.7686V124ZM94.9443 123.312C93.7432 124.005 92.3223 124.352 90.6816 124.352C88.4551 124.352 86.6582 123.658 85.291 122.271C83.9238 120.875 83.2402 119.068 83.2402 116.852C83.2402 114.381 83.9727 112.398 85.4375 110.904C86.9121 109.4 88.8799 108.648 91.3408 108.648C92.708 108.648 93.9141 108.888 94.959 109.366V112.53C93.9141 111.749 92.8008 111.358 91.6191 111.358C90.1836 111.358 89.0068 111.847 88.0889 112.823C87.1709 113.79 86.7119 115.06 86.7119 116.632C86.7119 118.185 87.1416 119.41 88.001 120.309C88.8701 121.207 90.0322 121.656 91.4873 121.656C92.708 121.656 93.8604 121.222 94.9443 120.353V123.312ZM106.238 123.839C105.574 124.171 104.7 124.337 103.616 124.337C100.706 124.337 99.251 122.94 99.251 120.147V111.666H96.7461V109H99.251V105.528L102.649 104.562V109H106.238V111.666H102.649V119.166C102.649 120.055 102.811 120.689 103.133 121.07C103.455 121.451 103.992 121.642 104.744 121.642C105.32 121.642 105.818 121.476 106.238 121.144V123.839ZM110.882 105.851C110.325 105.851 109.847 105.67 109.446 105.309C109.056 104.947 108.86 104.488 108.86 103.932C108.86 103.375 109.056 102.911 109.446 102.54C109.847 102.169 110.325 101.983 110.882 101.983C111.458 101.983 111.946 102.169 112.347 102.54C112.747 102.911 112.947 103.375 112.947 103.932C112.947 104.459 112.747 104.913 112.347 105.294C111.946 105.665 111.458 105.851 110.882 105.851ZM112.566 124H109.168V109H112.566V124ZM123.67 124.352C121.355 124.352 119.505 123.653 118.118 122.257C116.741 120.851 116.053 118.99 116.053 116.676C116.053 114.156 116.771 112.188 118.206 110.772C119.651 109.356 121.595 108.648 124.036 108.648C126.38 108.648 128.206 109.337 129.515 110.714C130.823 112.091 131.478 114 131.478 116.441C131.478 118.834 130.77 120.753 129.354 122.198C127.947 123.634 126.053 124.352 123.67 124.352ZM123.831 111.358C122.503 111.358 121.453 111.822 120.682 112.75C119.91 113.678 119.524 114.957 119.524 116.588C119.524 118.16 119.915 119.4 120.696 120.309C121.478 121.207 122.522 121.656 123.831 121.656C125.169 121.656 126.194 121.212 126.907 120.323C127.63 119.435 127.991 118.17 127.991 116.529C127.991 114.879 127.63 113.604 126.907 112.706C126.194 111.808 125.169 111.358 123.831 111.358ZM148.309 124H144.91V115.548C144.91 112.745 143.919 111.344 141.937 111.344C140.901 111.344 140.047 111.734 139.373 112.516C138.699 113.287 138.362 114.264 138.362 115.445V124H134.949V109H138.362V111.49H138.421C139.544 109.596 141.165 108.648 143.284 108.648C144.915 108.648 146.16 109.181 147.02 110.245C147.879 111.3 148.309 112.828 148.309 114.83V124ZM178.367 124H174.544L172.654 118.653H164.393L162.576 124H158.768L166.634 102.994H170.56L178.367 124ZM171.731 115.812L168.816 107.433C168.729 107.159 168.636 106.72 168.538 106.114H168.479C168.392 106.671 168.294 107.11 168.187 107.433L165.301 115.812H171.731ZM191.624 123.312C190.423 124.005 189.002 124.352 187.361 124.352C185.135 124.352 183.338 123.658 181.971 122.271C180.604 120.875 179.92 119.068 179.92 116.852C179.92 114.381 180.652 112.398 182.117 110.904C183.592 109.4 185.56 108.648 188.021 108.648C189.388 108.648 190.594 108.888 191.639 109.366V112.53C190.594 111.749 189.48 111.358 188.299 111.358C186.863 111.358 185.687 111.847 184.769 112.823C183.851 113.79 183.392 115.06 183.392 116.632C183.392 118.185 183.821 119.41 184.681 120.309C185.55 121.207 186.712 121.656 188.167 121.656C189.388 121.656 190.54 121.222 191.624 120.353V123.312ZM208.338 124H204.939V115.797C204.939 112.828 203.948 111.344 201.966 111.344C200.97 111.344 200.13 111.773 199.446 112.633C198.763 113.492 198.421 114.591 198.421 115.929V124H195.008V101.793H198.421V111.49H198.479C199.612 109.596 201.233 108.648 203.343 108.648C206.673 108.648 208.338 110.685 208.338 114.757V124ZM214.183 105.851C213.626 105.851 213.147 105.67 212.747 105.309C212.356 104.947 212.161 104.488 212.161 103.932C212.161 103.375 212.356 102.911 212.747 102.54C213.147 102.169 213.626 101.983 214.183 101.983C214.759 101.983 215.247 102.169 215.647 102.54C216.048 102.911 216.248 103.375 216.248 103.932C216.248 104.459 216.048 104.913 215.647 105.294C215.247 105.665 214.759 105.851 214.183 105.851ZM215.867 124H212.469V109H215.867V124ZM233.021 117.423H222.796C222.835 118.81 223.26 119.879 224.07 120.631C224.891 121.383 226.014 121.759 227.439 121.759C229.041 121.759 230.511 121.28 231.849 120.323V123.062C230.481 123.922 228.675 124.352 226.429 124.352C224.222 124.352 222.488 123.673 221.229 122.315C219.979 120.948 219.354 119.029 219.354 116.559C219.354 114.225 220.042 112.325 221.419 110.86C222.806 109.386 224.524 108.648 226.575 108.648C228.626 108.648 230.213 109.308 231.336 110.626C232.459 111.944 233.021 113.775 233.021 116.119V117.423ZM229.739 115.021C229.729 113.8 229.441 112.853 228.875 112.179C228.309 111.495 227.527 111.153 226.531 111.153C225.555 111.153 224.725 111.51 224.041 112.223C223.367 112.936 222.952 113.868 222.796 115.021H229.739ZM249.178 109L243.377 124H239.7L234.178 109H237.869L241.194 119.488C241.448 120.26 241.604 120.934 241.663 121.51H241.707C241.795 120.787 241.932 120.133 242.117 119.547L245.604 109H249.178ZM263.958 117.423H253.733C253.772 118.81 254.197 119.879 255.008 120.631C255.828 121.383 256.951 121.759 258.377 121.759C259.979 121.759 261.448 121.28 262.786 120.323V123.062C261.419 123.922 259.612 124.352 257.366 124.352C255.159 124.352 253.426 123.673 252.166 122.315C250.916 120.948 250.291 119.029 250.291 116.559C250.291 114.225 250.979 112.325 252.356 110.86C253.743 109.386 255.462 108.648 257.513 108.648C259.563 108.648 261.15 109.308 262.273 110.626C263.396 111.944 263.958 113.775 263.958 116.119V117.423ZM260.677 115.021C260.667 113.8 260.379 112.853 259.812 112.179C259.246 111.495 258.465 111.153 257.469 111.153C256.492 111.153 255.662 111.51 254.979 112.223C254.305 112.936 253.89 113.868 253.733 115.021H260.677ZM289.622 124H286.224V115.826C286.224 114.254 285.999 113.116 285.55 112.413C285.11 111.71 284.363 111.358 283.309 111.358C282.42 111.358 281.663 111.803 281.038 112.691C280.423 113.58 280.115 114.645 280.115 115.885V124H276.702V115.548C276.702 112.755 275.716 111.358 273.743 111.358C272.825 111.358 272.068 111.778 271.473 112.618C270.887 113.458 270.594 114.547 270.594 115.885V124H267.195V109H270.594V111.373H270.652C271.736 109.557 273.313 108.648 275.384 108.648C276.419 108.648 277.322 108.937 278.094 109.513C278.875 110.079 279.407 110.826 279.69 111.754C280.804 109.684 282.464 108.648 284.671 108.648C287.972 108.648 289.622 110.685 289.622 114.757V124ZM306.468 117.423H296.243C296.282 118.81 296.707 119.879 297.518 120.631C298.338 121.383 299.461 121.759 300.887 121.759C302.488 121.759 303.958 121.28 305.296 120.323V123.062C303.929 123.922 302.122 124.352 299.876 124.352C297.669 124.352 295.936 123.673 294.676 122.315C293.426 120.948 292.801 119.029 292.801 116.559C292.801 114.225 293.489 112.325 294.866 110.86C296.253 109.386 297.972 108.648 300.022 108.648C302.073 108.648 303.66 109.308 304.783 110.626C305.906 111.944 306.468 113.775 306.468 116.119V117.423ZM303.187 115.021C303.177 113.8 302.889 112.853 302.322 112.179C301.756 111.495 300.975 111.153 299.979 111.153C299.002 111.153 298.172 111.51 297.488 112.223C296.814 112.936 296.399 113.868 296.243 115.021H303.187ZM323.064 124H319.666V115.548C319.666 112.745 318.675 111.344 316.692 111.344C315.657 111.344 314.803 111.734 314.129 112.516C313.455 113.287 313.118 114.264 313.118 115.445V124H309.705V109H313.118V111.49H313.177C314.3 109.596 315.921 108.648 318.04 108.648C319.671 108.648 320.916 109.181 321.775 110.245C322.635 111.3 323.064 112.828 323.064 114.83V124ZM335.135 123.839C334.471 124.171 333.597 124.337 332.513 124.337C329.603 124.337 328.147 122.94 328.147 120.147V111.666H325.643V109H328.147V105.528L331.546 104.562V109H335.135V111.666H331.546V119.166C331.546 120.055 331.707 120.689 332.029 121.07C332.352 121.451 332.889 121.642 333.641 121.642C334.217 121.642 334.715 121.476 335.135 121.144V123.839ZM362.938 124H358.865L355.511 118.375C355.208 117.857 354.91 117.418 354.617 117.057C354.334 116.686 354.041 116.383 353.738 116.148C353.445 115.914 353.123 115.743 352.771 115.636C352.42 115.528 352.024 115.475 351.585 115.475H350.179V124H346.707V102.994H353.621C354.607 102.994 355.516 103.111 356.346 103.346C357.176 103.58 357.898 103.937 358.514 104.415C359.129 104.884 359.607 105.475 359.949 106.188C360.301 106.891 360.477 107.716 360.477 108.663C360.477 109.405 360.364 110.089 360.14 110.714C359.925 111.329 359.612 111.881 359.202 112.369C358.802 112.848 358.313 113.258 357.737 113.6C357.171 113.941 356.531 114.205 355.818 114.391V114.449C356.199 114.664 356.531 114.903 356.814 115.167C357.098 115.421 357.366 115.685 357.62 115.958C357.874 116.231 358.123 116.544 358.367 116.896C358.621 117.237 358.899 117.638 359.202 118.097L362.938 124ZM350.179 105.821V112.647H353.079C353.616 112.647 354.109 112.564 354.559 112.398C355.018 112.232 355.413 111.993 355.745 111.681C356.077 111.368 356.336 110.987 356.521 110.538C356.707 110.089 356.8 109.586 356.8 109.029C356.8 108.023 356.482 107.237 355.848 106.671C355.213 106.104 354.3 105.821 353.108 105.821H350.179ZM376.927 117.423H366.702C366.741 118.81 367.166 119.879 367.977 120.631C368.797 121.383 369.92 121.759 371.346 121.759C372.947 121.759 374.417 121.28 375.755 120.323V123.062C374.388 123.922 372.581 124.352 370.335 124.352C368.128 124.352 366.395 123.673 365.135 122.315C363.885 120.948 363.26 119.029 363.26 116.559C363.26 114.225 363.948 112.325 365.325 110.86C366.712 109.386 368.431 108.648 370.481 108.648C372.532 108.648 374.119 109.308 375.242 110.626C376.365 111.944 376.927 113.775 376.927 116.119V117.423ZM373.646 115.021C373.636 113.8 373.348 112.853 372.781 112.179C372.215 111.495 371.434 111.153 370.438 111.153C369.461 111.153 368.631 111.51 367.947 112.223C367.273 112.936 366.858 113.868 366.702 115.021H373.646ZM390.901 123.312C389.7 124.005 388.279 124.352 386.639 124.352C384.412 124.352 382.615 123.658 381.248 122.271C379.881 120.875 379.197 119.068 379.197 116.852C379.197 114.381 379.93 112.398 381.395 110.904C382.869 109.4 384.837 108.648 387.298 108.648C388.665 108.648 389.871 108.888 390.916 109.366V112.53C389.871 111.749 388.758 111.358 387.576 111.358C386.141 111.358 384.964 111.847 384.046 112.823C383.128 113.79 382.669 115.06 382.669 116.632C382.669 118.185 383.099 119.41 383.958 120.309C384.827 121.207 385.989 121.656 387.444 121.656C388.665 121.656 389.817 121.222 390.901 120.353V123.312ZM400.936 124.352C398.621 124.352 396.771 123.653 395.384 122.257C394.007 120.851 393.318 118.99 393.318 116.676C393.318 114.156 394.036 112.188 395.472 110.772C396.917 109.356 398.86 108.648 401.302 108.648C403.646 108.648 405.472 109.337 406.78 110.714C408.089 112.091 408.743 114 408.743 116.441C408.743 118.834 408.035 120.753 406.619 122.198C405.213 123.634 403.318 124.352 400.936 124.352ZM401.097 111.358C399.769 111.358 398.719 111.822 397.947 112.75C397.176 113.678 396.79 114.957 396.79 116.588C396.79 118.16 397.181 119.4 397.962 120.309C398.743 121.207 399.788 121.656 401.097 121.656C402.435 121.656 403.46 121.212 404.173 120.323C404.896 119.435 405.257 118.17 405.257 116.529C405.257 114.879 404.896 113.604 404.173 112.706C403.46 111.808 402.435 111.358 401.097 111.358ZM420.916 112.237C420.506 111.915 419.915 111.754 419.144 111.754C418.138 111.754 417.298 112.208 416.624 113.116C415.95 114.024 415.613 115.26 415.613 116.822V124H412.215V109H415.613V112.091H415.672C416.004 111.036 416.512 110.216 417.195 109.63C417.889 109.034 418.66 108.736 419.51 108.736C420.125 108.736 420.594 108.829 420.916 109.015V112.237ZM436.692 124H433.294V121.451H433.235C432.142 123.385 430.457 124.352 428.182 124.352C426.336 124.352 424.856 123.683 423.743 122.345C422.64 120.997 422.088 119.166 422.088 116.852C422.088 114.371 422.698 112.384 423.919 110.89C425.149 109.396 426.785 108.648 428.826 108.648C430.848 108.648 432.317 109.459 433.235 111.08H433.294V101.793H436.692V124ZM433.338 117.145V115.182C433.338 114.117 432.991 113.214 432.298 112.472C431.604 111.729 430.721 111.358 429.646 111.358C428.377 111.358 427.376 111.832 426.644 112.779C425.921 113.727 425.56 115.04 425.56 116.72C425.56 118.243 425.906 119.449 426.6 120.338C427.303 121.217 428.245 121.656 429.427 121.656C430.589 121.656 431.531 121.231 432.254 120.382C432.977 119.522 433.338 118.443 433.338 117.145Z" fill="white"/>
</svg>
