<svg width="101" height="101" viewBox="0 0 101 101" fill="none" xmlns="http://www.w3.org/2000/svg">
<g clip-path="url(#clip0)">
<path d="M37.6671 16.28C37.6671 11.4254 40.9512 7 45.8337 7C48.2798 7.09133 50.6007 8.09836 52.3316 9.8193C54.0624 11.5402 55.0752 13.8479 55.1671 16.28C55.1671 21.1346 50.7162 24.4 45.8337 24.4C44.7448 24.4625 43.655 24.2953 42.6356 23.9093C41.6163 23.5234 40.6907 22.9274 39.9194 22.1605C39.1482 21.3937 38.5488 20.4733 38.1606 19.4598C37.7724 18.4463 37.6042 17.3627 37.6671 16.28V16.28ZM68.0004 54.56C67.9561 48.6997 64.9799 43.9437 59.8337 41.8C59.8337 34.5396 53.1359 29.04 45.8337 29.04C44.1385 29.0041 42.4536 29.3096 40.8802 29.9381C39.3069 30.5667 37.8777 31.5053 36.6788 32.6974C35.4798 33.8895 34.5359 35.3105 33.9037 36.8748C33.2716 38.4391 32.9643 40.1145 33.0004 41.8V73.12H42.3337V94H55.1671V73.12H68.0004V54.56Z" fill="#212121"/>
</g>
<defs>
<clipPath id="clip0">
<rect width="35" height="87" fill="white" transform="translate(33 7)"/>
</clipPath>
</defs>
</svg>
