<svg width="235" height="127" viewBox="0 0 235 127" fill="none" xmlns="http://www.w3.org/2000/svg">
<g clip-path="url(#clip0)">
<path d="M78 48.9998H49V18.9998H30V48.9998H0V67.9998H30V97.9998H49V67.9998H78V48.9998ZM176 57.9998C179.818 58.0332 183.604 57.3058 187.137 55.8602C190.671 54.4147 193.881 52.2798 196.58 49.5802C199.28 46.8807 201.415 43.6705 202.86 40.137C204.306 36.6035 205.033 32.8174 205 28.9998C205.033 25.1822 204.306 21.3962 202.86 17.8627C201.415 14.3292 199.28 11.119 196.58 8.4194C193.881 5.71983 190.671 3.58497 187.137 2.13939C183.604 0.693811 179.818 -0.0335289 176 -0.000185294C172.967 -0.124676 169.932 0.212506 167 0.999815C172.822 9.17857 175.966 18.9606 176 28.9998C175.905 39.0292 172.766 48.7932 167 56.9998C169.932 57.7871 172.967 58.1243 176 57.9998V57.9998ZM127 57.9998C130.818 58.0332 134.604 57.3058 138.137 55.8602C141.671 54.4147 144.881 52.2798 147.58 49.5802C150.28 46.8807 152.415 43.6705 153.86 40.137C155.306 36.6035 156.033 32.8174 156 28.9998C156 21.3085 152.945 13.9323 147.506 8.49372C142.068 3.05516 134.691 -0.000184817 127 -0.000184817C119.309 -0.000184817 111.932 3.05516 106.494 8.49372C101.055 13.9323 98 21.3085 98 28.9998C97.9667 32.8174 98.694 36.6035 100.14 40.137C101.585 43.6705 103.72 46.8807 106.42 49.5802C109.119 52.2798 112.329 54.4147 115.863 55.8602C119.396 57.3058 123.182 58.0332 127 57.9998V57.9998ZM192 79.9998C200.107 87.1308 205 95.4738 205 107V127H235V107C235 91.9578 211.634 83.4188 192 79.9998ZM127 77.9998C107.464 77.9998 69 87.4638 69 107V127H186V107C186 87.4648 146.536 77.9998 127 77.9998V77.9998Z" fill="#212121"/>
</g>
<defs>
<clipPath id="clip0">
<rect width="235" height="127" fill="white"/>
</clipPath>
</defs>
</svg>
