<svg width="96" height="96" viewBox="0 0 96 96" fill="none" xmlns="http://www.w3.org/2000/svg">
<g clip-path="url(#clip0)">
<path d="M42.9936 83.6609C27.1525 81.4456 14.6072 68.9246 12.3528 53.0962L0.273946 53.0962C2.64896 75.5792 20.4984 93.399 42.9936 95.7333L42.9936 83.6609Z" fill="black"/>
<path d="M0.288464 42.7457L12.3778 42.7456C14.693 26.9918 27.2067 14.5428 42.9943 12.3398L42.9944 0.267312C20.5516 2.59674 2.73076 20.3373 0.288464 42.7457Z" fill="black"/>
<path d="M12.0001 42.4995H0.500127C0.100127 44.8991 0.666793 51.1663 1.00013 54C5.00013 55 12.8001 56.4 12.0001 54C11.2001 51.6 11.6668 45.333 12.0001 42.4995Z" fill="black" stroke="black"/>
<path d="M53.3447 83.6088L53.3442 95.6999C75.6796 93.2226 93.3609 75.4665 95.7237 53.096L83.646 53.096C81.4127 68.8112 69.0249 81.2635 53.3447 83.6088Z" fill="black"/>
<path d="M53.3441 12.3915C68.972 14.7247 81.3274 27.1056 83.622 42.7455L95.7103 42.7455C93.2802 20.4497 75.6272 2.77235 53.3441 0.30095L53.3441 12.3915Z" fill="black"/>
</g>
<defs>
<clipPath id="clip0">
<rect width="96" height="96" fill="white"/>
</clipPath>
</defs>
</svg>
