<svg width="237" height="237" viewBox="0 0 237 237" fill="none" xmlns="http://www.w3.org/2000/svg">
<g clip-path="url(#clip0)">
<path d="M79 104H50V73.9998H31V104H1V123H31V153H50V123H79V104ZM177 113C180.818 113.033 184.604 112.306 188.137 110.86C191.671 109.415 194.881 107.28 197.58 104.58C200.28 101.881 202.415 98.6705 203.86 95.137C205.306 91.6035 206.033 87.8174 206 83.9998C206.033 80.1822 205.306 76.3962 203.86 72.8627C202.415 69.3292 200.28 66.119 197.58 63.4194C194.881 60.7198 191.671 58.585 188.137 57.1394C184.604 55.6938 180.818 54.9665 177 54.9998C173.967 54.8753 170.932 55.2125 168 55.9998C173.822 64.1786 176.966 73.9606 177 83.9998C176.905 94.0292 173.766 103.793 168 112C170.932 112.787 173.967 113.124 177 113V113ZM128 113C131.818 113.033 135.604 112.306 139.137 110.86C142.671 109.415 145.881 107.28 148.58 104.58C151.28 101.881 153.415 98.6705 154.86 95.137C156.306 91.6035 157.033 87.8174 157 83.9998C157 76.3085 153.945 68.9323 148.506 63.4937C143.068 58.0552 135.691 54.9998 128 54.9998C120.309 54.9998 112.932 58.0552 107.494 63.4937C102.055 68.9323 99 76.3085 99 83.9998C98.9667 87.8174 99.694 91.6035 101.14 95.137C102.585 98.6705 104.72 101.881 107.42 104.58C110.119 107.28 113.329 109.415 116.863 110.86C120.396 112.306 124.182 113.033 128 113V113ZM193 135C201.107 142.131 206 150.474 206 162V182H236V162C236 146.958 212.634 138.419 193 135ZM128 133C108.464 133 70 142.464 70 162V182H187V162C187 142.465 147.536 133 128 133V133Z" fill="#212121"/>
</g>
<defs>
<clipPath id="clip0">
<rect width="235" height="127" fill="white" transform="translate(1 55)"/>
</clipPath>
</defs>
</svg>
