<svg width="96" height="96" viewBox="0 0 96 96" fill="none" xmlns="http://www.w3.org/2000/svg">
<path d="M58 4.76837e-07H38C35.792 4.76837e-07 34 2.752 34 6.14286V36.8571C34 40.248 35.792 43 38 43H92C94.208 43 96 40.248 96 36.8571V6.14286C96 2.752 94.208 4.76837e-07 92 4.76837e-07H64H58Z" fill="#212121"/>
<path d="M96 92.9032V51.0968C96 49.3874 94.432 48 92.5 48H71.5C69.568 48 68 49.3874 68 51.0968V92.9032C68 94.6126 69.568 96 71.5 96H92.5C94.432 96 96 94.6126 96 92.9032Z" fill="#212121"/>
<path d="M62 92.9032V51.0968C62 49.3874 59.9093 48 57.3333 48H38.6667C36.0907 48 34 49.3874 34 51.0968V92.9032C34 94.6126 36.0907 96 38.6667 96H57.3333C59.9093 96 62 94.6126 62 92.9032Z" fill="#212121"/>
<path d="M0 4L0 92C0 94.208 1.792 96 4 96H24C26.208 96 28 94.208 28 92V68L28 62L28 4C28 1.792 26.208 0 24 0H4C1.792 0 0 1.792 0 4Z" fill="#212121"/>
</svg>
