<svg width="96" height="96" viewBox="0 0 96 96" fill="none" xmlns="http://www.w3.org/2000/svg">
<g clip-path="url(#clip0)">
<path d="M53.0064 12.3391C68.8475 14.5544 81.3928 27.0754 83.6472 42.9038L95.7261 42.9038C93.351 20.4208 75.5016 2.60102 53.0064 0.266726L53.0064 12.3391Z" fill="black"/>
<path d="M95.7115 53.2543L83.6222 53.2544C81.307 69.0082 68.7933 81.4572 53.0057 83.6602L53.0056 95.7327C75.4484 93.4033 93.2692 75.6627 95.7115 53.2543Z" fill="black"/>
<path d="M83.9999 53.5005H95.4999C95.8999 51.1009 95.3332 44.8337 94.9999 42C90.9999 41 83.1999 39.6 83.9999 42C84.7999 44.4 84.3332 50.667 83.9999 53.5005Z" fill="black" stroke="black"/>
<path d="M42.6553 12.3912L42.6558 0.300115C20.3204 2.77738 2.63907 20.5335 0.276338 42.904L12.354 42.904C14.5873 27.1888 26.9751 14.7365 42.6553 12.3912Z" fill="black"/>
<path d="M42.6559 83.6085C27.028 81.2753 14.6726 68.8944 12.378 53.2545L0.289709 53.2545C2.71984 75.5503 20.3728 93.2276 42.6559 95.699L42.6559 83.6085Z" fill="black"/>
</g>
<defs>
<clipPath id="clip0">
<rect width="96" height="96" fill="white" transform="translate(96 96) rotate(-180)"/>
</clipPath>
</defs>
</svg>
