<svg xmlns="http://www.w3.org/2000/svg" width="76" height="76" viewBox="0 0 76 76">
  <path id="ic_thumbs_up_down_24px" d="M38,18.5a2.911,2.911,0,0,0-3-3H18l2-10h0a4.915,4.915,0,0,0-1-3l-2-3L1,15.5a3.7,3.7,0,0,0-1,3v21a5.206,5.206,0,0,0,5,5H26a4.414,4.414,0,0,0,4-3l7-17c.22-.535,1-1.4,1-2Zm33,13H50a5.882,5.882,0,0,0-5,3l-7,16a6.093,6.093,0,0,0,0,2v4a2.911,2.911,0,0,0,3,3H57l-2,10v1a4.915,4.915,0,0,0,1,3l3,2,15-16c.849-.849,2-1.71,2-3v-20A5.206,5.206,0,0,0,71,31.5Z" transform="translate(0 0.498)" fill="#212121"/>
</svg>
