<svg xmlns="http://www.w3.org/2000/svg" width="46" height="46" viewBox="0 0 46 46">
  <g id="Group_158" data-name="Group 158" transform="translate(-5477 2123)">
    <circle id="Ellipse_185" data-name="Ellipse 185" cx="23" cy="23" r="23" transform="translate(5477 -2123)" fill="#c7c4c4"/>
    <path id="Path_49" data-name="Path 49" d="M28.859-.052c-.246-.246-.685-.139-1,0l-27,12c-.3.132-.981.679-1,1s.723.843,1,1l9,6,6,9c.151.258.7,1,1,1h0c.321-.019.868-.7,1-1l12-28C30,.627,29.111.194,28.859-.052Zm-4,4-14,14-8-5Zm-8,23-5-8,14-14Z" transform="translate(5483.14 -2113.948)" fill="#212121"/>
  </g>
</svg>
