<svg xmlns="http://www.w3.org/2000/svg" width="15.004" height="21.12" viewBox="0 0 15.004 21.12">
  <path id="ic_touch_app_24px" d="M8.75,11V8a3.44,3.44,0,0,1,3-3c1.38,0,2,1.62,2,3v3c1.21-.81,2-1.44,2-3,0-2.49-1.51-5-4-5a5.393,5.393,0,0,0-5,5C6.75,9.56,7.54,10.19,8.75,11Zm10,5-4-2a4.774,4.774,0,0,0-1,0h-1V8c0-.83-.17-2-1-2a2.492,2.492,0,0,0-2,2V18h-3c-.08-.01.09-1,0-1-.31,0-.8.8-1,1l-1,1,5,5c.27.27.59,0,1,0h7c.75,0,.89-.27,1-1l1-6c.01-.07,0,.06,0,0C19.75,16.38,19.28,16.22,18.75,16Z" transform="translate(-4.75 -3)" fill="#fff"/>
</svg>
