<svg xmlns="http://www.w3.org/2000/svg" width="75" height="61" viewBox="0 0 75 61">
  <path id="ic_tab_unselected_24px" d="M1,23.376H8v-7H1Zm0,14H8v-7H1Zm0-28H8v-6C4.249,3.376,1,5.625,1,9.376Zm27,55h7v-7H28Zm-27-14H8v-6H1Zm7,14v-7H1A7.153,7.153,0,0,0,8,64.376Zm61-61H42v20H76v-14C76,5.625,72.751,3.376,69,3.376Zm0,47h7v-6H69Zm-41-41h7v-6H28Zm-13,55h6v-7H15Zm0-55h6v-6H15Zm54,55a7.153,7.153,0,0,0,7-7H69Zm0-27h7v-7H69Zm-27,27h7v-7H42Zm14,0h6v-7H56Z" transform="translate(-1 -3.376)" fill="#212121"/>
</svg>
